<svg xmlns="http://www.w3.org/2000/svg" xmlns:xlink="http://www.w3.org/1999/xlink" fill="none" version="1.1" width="103.4154052734375" height="24.05010986328125" viewBox="0 0 103.4154052734375 24.05010986328125"><path d="M14.202142859375,19.998781376953126C14.081599859375,21.086305376953124,14.235039859375,22.186710376953126,14.648484859375,23.199775376953124C10.780517859375,24.107830376953125,6.718019459375,22.951046376953126,3.908594859375,20.141622376953126C-0.5740239406250001,15.659003376953125,-0.5740239406250001,8.391243976953124,3.908594859375,3.908625376953125C8.391213459374999,-0.5739934230468751,15.658973859375,-0.5739934230468751,20.141591859375,3.908625376953125C22.951015859375,6.718049976953125,24.107799859375,10.780547376953125,23.199744859375,14.648515376953124C22.186675859375,14.235069376953126,21.086269859375,14.081630376953125,19.998750859375,14.202174376953124C19.975465859375,14.204754376953124,19.952193859375,14.207461376953125,19.928937859375,14.210291376953124C18.473779859375,14.387383376953125,17.119887859375,15.046829376953125,16.083341859375,16.083373376953126C15.046798859375,17.119917376953126,14.387352859375,18.473814376953126,14.210260859375,19.928970376953124C14.207430859375,19.952226376953124,14.204741859375,19.975500376953125,14.202142859375,19.998781376953126ZM20.223992859375,12.025122376953124Q20.223992859375,13.115562376953125,19.945867859375,14.148402376953126C19.018521859375,13.222635376953125,17.704494859375,12.795963376953125,16.410182859375,13.000344376953125Q15.181056859375,11.517583376953125,13.479603859375,10.499915076953124Q11.360190859375,9.232257876953126,8.951638259375,8.951668776953126Q9.232226359375,11.360221376953126,10.499885559375,13.479635376953125Q11.517552859375,15.181087376953124,13.000314859375,16.410212376953126C12.795931859375,17.704527376953124,13.222604859375,19.018552376953124,14.148372859375,19.945898376953124Q13.115528859375,20.224023376953124,12.025090859375,20.224023376953124Q10.327043559375,20.224023376953124,8.768675759375,19.549600376953126Q7.333429859375,18.928457376953126,6.227594359375,17.822622376953124Q5.121757959375,16.716785376953126,4.500617459375,15.281540376953124Q3.826191459375,13.723171376953125,3.826191459375,12.025122376953124Q3.826191459375,10.327074076953124,4.500617459375,8.768706276953125Q5.121757959375,7.333460376953125,6.227594359375,6.227624876953125Q7.333429859375,5.121788976953125,8.768675759375,4.500647976953125Q10.327043559375,3.826221976953125,12.025090859375,3.826222676953125Q13.723139859375,3.826220976953125,15.281509859375,4.500647976953125Q16.716754859375,5.121790376953125,17.822589859375,6.227625376953125Q18.928424859375,7.333460376953125,19.549569859375,8.768706276953125Q20.223992859375,10.327076876953125,20.223992859375,12.025122376953124Z" fill-rule="evenodd" fill="#5A82E6" fill-opacity="1"/><path d="M21.281604296875,18.109588119921874C21.158185996874998,17.784287819921875,20.967157796875,17.488872169921876,20.721136996875,17.242851199921876C19.760575496875,16.282290119921875,18.203198596875,16.282290119921875,17.242637576875,17.242851199921876C16.282076496875,18.203412219921876,16.282076496875,19.760789119921874,17.242637576875,20.721350619921875C17.488658546875,20.967371419921875,17.784074396875,21.158399619921873,18.109374496875,21.281817919921874L23.503934896875002,23.504148919921874L21.281604296875,18.109588119921874Z" fill-rule="evenodd" fill="#F4AD0C" fill-opacity="1"/><g><path d="M32.60386311875,5.63181876953125Q32.48055931875,5.6494340695312495,32.46294451875,5.7727374695312506L32.46294451875,7.6399087695312495Q32.48055931875,7.745597869531251,32.60386311875,7.745597869531251L34.11873771875,7.745597869531251Q35.12278251875,7.78082756953125,35.77453091875,7.11146446953125L36.86664961875,5.98411556953125Q37.14848711875,5.68466376953125,37.500783418750004,5.63181876953125L43.56028171875,5.63181876953125Q43.789273718749996,5.66704846953125,43.91257871875,5.91365626953125L45.039926718749996,7.11146446953125Q45.53314171875,7.6399087695312495,46.20250471875,7.6399087695312495L48.35151271875,7.6399087695312495Q48.45720271875,7.62229346953125,48.45720271875,7.49899006953125L48.45720271875,5.70227816953125Q48.45720271875,5.5613593695312495,48.35151271875,5.52612976953125L47.75260971875,5.52612976953125Q47.25939371875,5.5613593695312495,46.94232771875,5.20906356953125L45.53314171875,3.6237297095312497Q45.427452718750004,3.50042533953125,45.28653471875,3.48281096953125L35.77453091875,3.48281096953125Q35.63361211875,3.50042533953125,35.38700481875,3.76464843953125L34.18919701875,5.13860415953125Q33.76644131875,5.63181876953125,33.23799671875,5.63181876953125L32.60386311875,5.63181876953125ZM48.140134718750005,8.48542026953125Q48.122520718749996,8.344501469531249,47.963987718750005,8.344501469531249L32.92092991875,8.344501469531249L32.78001131875,8.48542026953125L32.78001131875,10.28213166953125Q32.79762611875,10.40543556953125,32.92092991875,10.42305036953125L35.95067931875,10.42305036953125L38.94519851875,10.42305036953125Q39.06850241875,10.42305036953125,39.08611721875,10.52873946953125L39.08611721875,11.30379156953125Q39.06850241875,11.47993946953125,38.94519851875,11.47993946953125L32.85047061875,11.47993946953125Q32.72716691875,11.49755426953125,32.70955201875,11.62085816953125L32.70955201875,13.34711076953125Q32.72716691875,13.45279976953125,32.85047061875,13.45279976953125L39.01565791875,13.45279976953125Q39.12134691875,13.47041506953125,39.12134691875,13.59371756953125L39.12134691875,17.82127426953125Q39.12134691875,17.94457926953125,39.01565791875,17.962193269531248L32.60386311875,17.962193269531248Q32.51578901875,17.979809269531252,32.53340391875,18.103112269531252L32.53340391875,19.74129126953125Q32.55101861875,19.84697926953125,32.67432231875,19.84697926953125L48.35151271875,19.84697926953125Q48.45720271875,19.84697926953125,48.45720271875,19.74129126953125L48.45720271875,18.103112269531252Q48.45720271875,17.979809269531252,48.35151271875,17.962193269531248L41.869258718750004,17.962193269531248Q41.74595571875,17.94457926953125,41.72833971875,17.82127426953125L41.72833971875,13.52325816953125Q41.74595571875,13.39995576953125,41.869258718750004,13.38234046953125L47.963987718750005,13.38234046953125Q48.122520718749996,13.38234046953125,48.140134718750005,13.27665136953125L48.140134718750005,11.55039886953125Q48.122520718749996,11.42709536953125,47.963987718750005,11.409480569531251L41.93971871875,11.409480569531251Q41.816414718749996,11.374250869531249,41.798799718750004,11.23333216953125L41.798799718750004,10.49350976953125Q41.816414718749996,10.370205869531251,41.93971871875,10.35259106953125L47.963987718750005,10.35259106953125Q48.122520718749996,10.334976169531249,48.140134718750005,10.211672769531251L48.140134718750005,8.48542026953125ZM47.963987718750005,14.33354126953125Q47.99921571875,14.10454746953125,47.82306871875,14.08693316953125L45.49791271875,14.08693316953125Q45.30414871875,14.10454746953125,45.28653471875,14.26308126953125L45.21607471875,14.61537726953125Q45.11038571875,15.16143726953125,44.65240071875,15.17905226953125L42.99660771875,15.17905226953125Q42.87330371875,15.19666626953125,42.85568871875,15.31997126953125L42.85568871875,17.081452269531248Q42.87330371875,17.25760126953125,42.99660771875,17.25760126953125L45.28653471875,17.25760126953125Q46.14965971875,17.27521626953125,46.83663871875,16.94053426953125Q47.52361671875,16.605852269531248,47.71737871875,15.74272626953125L47.963987718750005,14.33354126953125ZM38.06445741875,15.31997126953125Q38.04684261875,15.19666626953125,37.92353911875,15.17905226953125L36.23251631875,15.17905226953125Q35.75691601875,15.16143726953125,35.59838251875,14.75629626953125L35.45746421875,14.33354126953125Q35.40461971875,14.19262216953125,35.31654551875,14.15739246953125L33.02661881875,14.15739246953125Q32.85047061875,14.19262216953125,32.85047061875,14.33354126953125L33.16753731875,15.88364526953125Q33.55506351875,17.11668226953125,35.06993791875,17.081452269531248L37.92353911875,17.081452269531248Q38.04684261875,17.06383826953125,38.06445741875,16.94053426953125L38.06445741875,15.31997126953125ZM57.194152718750004,3.6237297095312497Q56.98277471875,3.65895938953125,56.94754571875,3.83510779953125L56.94754571875,9.36616136953125Q56.91231571875,9.48946476953125,56.77139671875,9.50708006953125L50.394832718749996,9.50708006953125Q50.271528718750005,9.52469446953125,50.25391371875,9.683227569531251L50.25391371875,11.69131756953125Q50.271528718750005,11.81462146953125,50.394832718749996,11.83223626953125L56.77139671875,11.83223626953125Q56.91231571875,11.86746546953125,56.94754571875,12.04361386953125L56.94754571875,19.56514226953125Q56.98277471875,19.74129126953125,57.123693718750005,19.77652026953125L59.484081718750005,19.77652026953125Q59.624997718749995,19.758905269531247,59.660228718750005,19.635602269531248L59.660228718750005,12.04361386953125Q59.64261271875,11.86746546953125,59.90683571875,11.83223626953125L66.21294371875,11.83223626953125Q66.33624271875,11.81462146953125,66.35385871874999,11.69131756953125L66.35385871874999,9.683227569531251Q66.33624271875,9.52469446953125,66.21294371875,9.50708006953125L59.80114771875,9.50708006953125Q59.67784271875,9.48946476953125,59.660228718750005,9.36616136953125L59.660228718750005,3.83510779953125Q59.67784271875,3.6237297095312497,59.484081718750005,3.6237297095312497L57.194152718750004,3.6237297095312497ZM76.95798071875001,5.5613593695312495Q76.90513571875,5.57897476953125,76.92275271874999,5.70227816953125L76.92275271874999,7.35807136953125Q76.90513571875,7.49899006953125,77.09889971875,7.53421976953125L78.40239671875,7.53421976953125Q79.01891671875,7.62229346953125,79.38882871875,7.21715256953125L79.70589471875,6.723937969531249Q79.75873971875001,6.60063456953125,79.88204171875,6.58301926953125L84.25051871875,6.58301926953125Q84.37382171875001,6.5477895695312505,84.39143771875,6.40687086953125L84.39143771875,4.57493018953125Q84.35620871875,4.45162581953125,84.18006171875,4.43401145953125L80.26956971875,4.43401145953125Q80.18149571875,4.41639613953125,80.19910771875,4.29309272753125L80.26956971875,3.55327033953125Q80.28718571875001,3.42996692953125,80.19910771875,3.41235160953125L78.12055971875,3.41235160953125Q77.99725771875,3.39473723953125,77.97964071875,3.48281096953125L77.73303271875,4.99768542953125Q77.69780371875001,5.40282626953125,77.34550871875,5.49090096953125L76.95798071875001,5.5613593695312495ZM71.32123971875001,11.47993946953125Q71.35646771875,11.673702669531249,71.49738671875,11.69131756953125L73.29409771875001,11.69131756953125Q73.41740371875,11.638473069531251,73.39978771874999,11.47993946953125L73.39978771874999,7.71036816953125Q73.45263271875001,7.49899006953125,73.61116771875001,7.49899006953125L76.32384871875,7.49899006953125Q76.44715071875001,7.48137566953125,76.46476771875,7.35807136953125L76.46476771875,5.5613593695312495Q76.42953871875,5.42044166953125,76.25338771874999,5.38521196953125L75.97154971875,5.38521196953125Q75.84824771875,5.34998226953125,75.83063471874999,5.20906356953125L75.90109271875,3.87033652953125Q75.86586371875,3.69418906953125,75.68971671874999,3.65895938953125L74.59759471875,3.65895938953125Q74.45667671875,3.6237297095312497,74.42144771875,3.79987811953125L74.24530071875,5.20906356953125Q74.22768371875,5.43805596953125,74.10438171875,5.38521196953125L73.54070671875,5.38521196953125Q73.41740371875,5.34998226953125,73.39978771874999,5.20906356953125L73.39978771874999,3.55327033953125Q73.36455871875,3.37712192953125,73.22364071875,3.34189223953125L71.49738671875,3.34189223953125Q71.35646771875,3.35950755953125,71.32123971875001,3.48281096953125L71.32123971875001,5.20906356953125Q71.32123971875001,5.34998226953125,71.21554971875,5.38521196953125L70.61664571875,5.38521196953125Q70.49334371875,5.34998226953125,70.47572671875,5.20906356953125L70.29957971875001,3.79987811953125Q70.33480871875,3.67657374953125,70.12343171875,3.65895938953125L68.92562471875,3.65895938953125Q68.80231871875,3.6413440695312502,68.78470571874999,3.7294187595312502L68.92562471875,5.20906356953125Q68.90800871875,5.34998226953125,68.78470571874999,5.38521196953125L68.43240771875,5.38521196953125Q68.30910471875,5.42044166953125,68.29148871875,5.5613593695312495L68.29148871875,7.28761196953125Q68.32672071875001,7.48137566953125,68.46763971875001,7.49899006953125L71.14509171875,7.49899006953125Q71.28601071874999,7.53421976953125,71.32123971875001,7.71036816953125L71.32123971875001,11.47993946953125ZM73.92823371875,8.20358276953125Q73.75208271875,8.27404216953125,73.78731571875,8.48542026953125L74.35099071875,10.52873946953125Q74.42144771875,11.286176669531251,74.98512271875,11.409480569531251L76.53522471875,11.409480569531251Q76.76422071875001,11.39186576953125,76.78183371875,11.26856186953125L76.78183371875,10.14121336953125Q76.76422071875001,9.94745066953125,76.64091471875,9.89460566953125L76.35907771875,9.89460566953125Q75.97154971875,9.92983526953125,75.86586371875,9.33093166953125L75.61925471875,8.41496086953125Q75.54879771875,8.23881246953125,75.33741771875,8.20358276953125L73.92823371875,8.20358276953125ZM69.84159471875,11.409480569531251Q70.59903371875001,11.35663606953125,70.68710671875,10.45828006953125L71.07463071875,8.37973116953125Q71.10986371875,8.20358276953125,71.00417371875,8.13312336953125L69.41883871875001,8.13312336953125Q69.22507471875,8.185968369531249,69.20746271875001,8.344501469531249L69.06654371875,9.33093166953125Q69.06654371875,9.63038346953125,68.85516371874999,9.75368686953125L68.57332571875,9.89460566953125Q68.37956571875,9.96506496953125,68.36194971875,10.14121336953125L68.36194971875,11.19810246953125Q68.32672071875001,11.35663606953125,68.46763971875001,11.409480569531251L69.84159471875,11.409480569531251ZM73.99869171875,12.67774776953125Q73.98107871875,12.80105116953125,73.85777271875,12.81866646953125L70.68710671875,12.81866646953125Q70.56380071875,12.80105116953125,70.54618871875,12.67774776953125L70.54618871875,12.25499156953125Q70.54618871875,12.13168806953125,70.44049871875,12.11407326953125L68.85516371874999,12.11407326953125Q68.73186071875,12.13168806953125,68.71424471875,12.25499156953125L68.71424471875,12.67774776953125Q68.73186071875,12.78343586953125,68.64378771874999,12.81866646953125L68.36194971875,12.92435456953125Q68.27387571874999,12.97719956953125,68.29148871875,13.06527326953125L68.29148871875,14.68583726953125Q68.27387571874999,14.80914126953125,68.36194971875,14.82675526953125L68.57332571875,14.82675526953125Q68.69663271875001,14.84437026953125,68.71424471875,14.96767426953125L68.71424471875,16.41208926953125Q68.73186071875,16.58823726953125,68.85516371874999,16.69392726953125L70.86325471875,18.032653269531252L70.75756471874999,18.13834226953125Q70.52857171875,18.29687526953125,70.19388971875,18.29687526953125L68.39717871875,18.29687526953125Q68.29148871875,18.314490269531248,68.29148871875,18.437793269531248L68.29148871875,19.70606126953125Q68.29148871875,19.86459426953125,68.39717871875,19.88221026953125L71.00417371875,19.88221026953125Q71.33885571875,19.82936526953125,71.63830571874999,19.635602269531248L72.48381771875,19.00146826953125Q72.57189171875001,18.94862326953125,72.65996571875,19.00146826953125L73.78731571875,19.70606126953125Q73.98107871875,19.86459426953125,74.24530071875,19.88221026953125L76.46476771875,19.88221026953125Q76.60568571875001,19.82936526953125,76.64091471875,19.635602269531248L76.64091471875,18.437793269531248Q76.60568571875001,18.314490269531248,76.46476771875,18.29687526953125L75.05557971875001,18.29687526953125Q74.93227771875,18.27926026953125,74.77374271875,18.226415269531252L74.17483871875001,17.89173426953125Q74.12199371874999,17.85650426953125,74.17483871875001,17.82127426953125L75.51356471874999,16.76438626953125Q75.95393771875,16.41208926953125,75.97154971875,15.84841526953125L75.97154971875,14.96767426953125Q76.00678271875,14.84437026953125,76.14770171875,14.82675526953125L76.46476771875,14.82675526953125Q76.60568571875001,14.80914126953125,76.64091471875,14.68583726953125L76.64091471875,12.99481386953125Q76.60568571875001,12.85389516953125,76.46476771875,12.81866646953125L76.14770171875,12.81866646953125Q76.00678271875,12.80105116953125,75.97154971875,12.67774776953125L75.97154971875,12.11407326953125Q75.95393771875,12.025999069531249,75.83063471874999,12.04361386953125L74.10438171875,12.04361386953125Q73.99869171875,12.061228769531251,73.99869171875,12.18453266953125L73.99869171875,12.67774776953125ZM70.54618871875,14.96767426953125Q70.56380071875,14.84437026953125,70.68710671875,14.82675526953125L73.92823371875,14.82675526953125Q74.01630771875,14.84437026953125,73.99869171875,14.96767426953125L73.99869171875,15.39043026953125Q74.01630771875,15.54896326953125,73.92823371875,15.60180726953125L72.58950771875,16.76438626953125Q72.43097271875,16.87007526953125,72.27243771875,16.76438626953125L70.75756471874999,15.84841526953125Q70.54618871875,15.70749626953125,70.54618871875,15.46088926953125L70.54618871875,14.96767426953125ZM80.58663571875,11.33902116953125Q80.55140671875,11.39186576953125,80.48094571875001,11.33902116953125L79.31836671875,8.62633896953125Q79.28313871875,8.50303456953125,79.10699071875,8.48542026953125L77.27504771875,8.48542026953125Q77.09889971875,8.50303456953125,77.09889971875,8.62633896953125L79.38882871875,14.68583726953125Q79.40644071874999,14.75629626953125,79.38882871875,14.82675526953125L78.40239671875,17.962193269531248Q78.33193971875,18.226415269531252,78.12055971875,18.226415269531252L77.09889971875,18.226415269531252Q76.97559771875001,18.24403126953125,76.95798071875001,18.36733426953125L76.95798071875001,19.70606126953125Q76.97559771875001,19.86459426953125,77.09889971875,19.88221026953125L79.38882871875,19.88221026953125Q79.77635171874999,19.91743826953125,79.95250271875,19.635602269531248L80.58663571875,18.437793269531248Q80.69232571875,18.384949269531248,80.76278271875,18.437793269531248L81.11508171874999,19.24807526953125Q81.41453171875,19.82936526953125,82.03105171875,19.88221026953125L84.18006171875,19.88221026953125Q84.30335971875,19.86459426953125,84.32097671875,19.70606126953125L84.32097671875,18.29687526953125Q84.30335971875,18.20880126953125,84.18006171875,18.20880126953125L83.36977771875,18.20880126953125Q82.89417671875,18.12072726953125,82.73564171875,17.609897269531253L81.74921371875,15.21428226953125Q81.69636871875,15.03813326953125,81.74921371875,14.89721526953125L84.07437171875,7.8512868695312505Q84.19767371875,7.67513846953125,84.00390971875001,7.60467906953125L81.85490371875,7.60467906953125Q81.71398171875,7.58706376953125,81.67875671875001,7.71036816953125L80.58663571875,11.33902116953125ZM96.36951471875,19.77652026953125Q96.38713071875,19.93505426953125,96.51043671875,19.95266826953125L101.37212371875,19.95266826953125Q102.64039571875,19.84697926953125,102.64039571875,18.437793269531248L102.64039571875,14.40400026953125Q102.62277971875,14.28069626953125,102.49947371875,14.26308126953125L100.66753371875,14.26308126953125Q100.49138671875,14.24546626953125,100.49138671875,14.12216276953125L100.49138671875,13.13573266953125Q100.49138671875,13.01242926953125,100.66753371875,12.99481386953125L102.35855871875,12.99481386953125Q102.48185771875,12.95958516953125,102.49947371875,12.81866646953125L102.49947371875,11.05718376953125Q102.48185771875,10.93388036953125,102.35855871875,10.91626546953125L100.66753371875,10.91626546953125Q100.49138671875,10.89865066953125,100.49138671875,10.77534676953125L100.49138671875,9.96506496953125Q100.49138671875,9.84176156953125,100.66753371875,9.82414626953125L101.30166671875,9.82414626953125Q102.42901571875,9.85937596953125,102.49947371875,8.76725766953125L102.49947371875,3.6237297095312497Q102.48185771875,3.50042533953125,102.35855871875,3.48281096953125L93.37499571875,3.48281096953125Q93.25169371875,3.50042533953125,93.23407771875,3.6237297095312497L93.23407771875,17.68035726953125Q93.19884871875,17.80366026953125,93.02270171875,17.82127426953125L92.38856871875001,17.82127426953125Q92.26526271875,17.85650426953125,92.24764971875,17.99742326953125L92.24764971875,19.88221026953125Q92.26526271875,20.00551326953125,92.38856871875001,20.02312726953125L94.53757471875,20.02312726953125Q95.68254071875,20.00551326953125,95.73538171875,18.89577926953125L95.73538171875,9.96506496953125Q95.75299871875,9.84176156953125,95.87630471875,9.82414626953125L97.81393471875,9.82414626953125Q97.93723271875,9.84176156953125,97.95484971875,9.96506496953125L97.95484971875,10.77534676953125Q97.93723271875,10.89865066953125,97.81393471875,10.91626546953125L96.43997971875,10.91626546953125Q96.31667371875,10.93388036953125,96.29905671875,11.05718376953125L96.29905671875,12.81866646953125Q96.31667371875,12.95958516953125,96.43997971875,12.99481386953125L97.81393471875,12.99481386953125Q97.93723271875,13.01242926953125,97.95484971875,13.13573266953125L97.95484971875,14.12216276953125Q97.93723271875,14.24546626953125,97.81393471875,14.26308126953125L96.51043671875,14.26308126953125Q96.38713071875,14.28069626953125,96.36951471875,14.40400026953125L96.36951471875,19.77652026953125ZM89.25312771875,3.48281096953125Q89.12982571875,3.50042533953125,89.11220971875,3.6237297095312497L89.11220971875,4.68061828953125Q89.07698071875001,4.80392264953125,88.93606171875,4.82153701953125L86.46998571875,4.82153701953125Q86.34668371875,4.85676669953125,86.32906771875,4.99768542953125L86.32906771875,7.04100516953125Q86.34668371875,7.18192286953125,86.46998571875,7.21715256953125L88.93606171875,7.21715256953125Q89.07698071875001,7.23476786953125,89.11220971875,7.35807136953125L89.11220971875,8.55587956953125Q89.07698071875001,8.89056106953125,88.93606171875,9.22524256953125L86.99843171875,13.94601436953125Q86.83989671875,14.26308126953125,86.46998571875,14.26308126953125L86.32906771875,14.26308126953125Q86.20576471875,14.28069626953125,86.18814871875,14.40400026953125L86.18814871875,16.306400269531252Q86.20576471875,16.44731926953125,86.32906771875,16.48254826953125L87.10412171875001,16.48254826953125Q87.84394471875001,16.46493426953125,88.16101071874999,15.84841526953125L88.86560471875,14.26308126953125Q89.00652271875,14.15739246953125,89.11220971875,14.26308126953125L89.11220971875,17.46897926953125Q89.02413571875,17.838890269531248,88.68945271875,17.89173426953125L87.80871571875,17.89173426953125Q87.68540971875001,17.909349269531248,87.66779671875,18.032653269531252L87.66779671875,19.77652026953125Q87.68540971875001,19.93505426953125,87.80871571875,19.95266826953125L90.31002071875,19.95266826953125Q91.47259471875,19.89982426953125,91.54305671875,18.75486126953125L91.54305671875,10.84580616953125Q91.56066871875001,10.722502269531251,91.68397571874999,10.70488736953125L92.03626971874999,10.70488736953125Q92.15957671875,10.66965766953125,92.17718871875,10.52873946953125L92.17718871875,8.48542026953125Q92.15957671875,8.36211676953125,92.03626971874999,8.344501469531249L91.68397571874999,8.344501469531249Q91.56066871875001,8.30927176953125,91.54305671875,8.16835306953125L91.54305671875,7.35807136953125Q91.56066871875001,7.23476786953125,91.68397571874999,7.21715256953125L92.03626971874999,7.21715256953125Q92.15957671875,7.18192286953125,92.17718871875,7.04100516953125L92.17718871875,4.96245574953125Q92.15957671875,4.83915233953125,92.03626971874999,4.82153701953125L91.68397571874999,4.82153701953125Q91.56066871875001,4.80392264953125,91.54305671875,4.68061828953125L91.54305671875,3.6237297095312497Q91.52543971875,3.50042533953125,91.40213771875,3.48281096953125L89.25312771875,3.48281096953125ZM95.94676171875,7.67513846953125Q95.75299871875,7.65752316953125,95.73538171875,7.463760369531251L95.73538171875,6.08980466953125Q95.75299871875,5.8608121695312505,95.94676171875,5.8431968695312495L99.85725371875,5.8431968695312495Q100.05101771875,5.8608121695312505,100.10385871875,6.08980466953125L100.10385871875,7.463760369531251Q100.05101771875,7.65752316953125,99.85725371875,7.67513846953125L95.94676171875,7.67513846953125ZM99.04696671875,17.962193269531248Q98.83559371875,17.94457926953125,98.80036171875,17.75081626953125L98.80036171875,16.55300826953125Q98.83559371875,16.35924526953125,99.04696671875,16.306400269531252L100.13909171875,16.306400269531252Q100.31523871875,16.35924526953125,100.35046371875,16.55300826953125L100.35046371875,17.75081626953125Q100.31523871875,17.94457926953125,100.13909171875,17.962193269531248L99.04696671875,17.962193269531248Z" fill="#5A82E6" fill-opacity="1"/></g></svg>